<svg enable-background="new 0 0 24 24" viewBox="0 0 24 24" xmlns="http://www.w3.org/2000/svg"><defs>
<style> path { fill: #24836b; }</style>
</defs><path d="m2 3c0-.551.449-1 1-1s1 .449 1 1c0 .552.448 1 1 1s1-.448 1-1c0-1.654-1.346-3-3-3s-3 1.346-3 3v9h2zm19-3c-1.654 0-3 1.346-3 3 0 .552.448 1 1 1s1-.448 1-1c0-.551.449-1 1-1s1 .449 1 1v9h2v-9c0-1.654-1.346-3-3-3zm-21 22.001c0 1.104.895 1.999 1.999 1.999h6.237c1.008 0 1.858-.75 1.983-1.751l.656-5.249h2.25l.656 5.249c.125 1 .975 1.751 1.983 1.751h6.237c1.104 0 1.999-.895 1.999-1.999v-8.001h-24zm21-5.001v4h-4.352l-.5-4zm-18 0h4.852l-.5 4h-4.352z"/></svg>