<svg enable-background="new 0 0 24 24" viewBox="0 0 24 24" xmlns="http://www.w3.org/2000/svg"><defs>
<style> path { fill: #24836b; }</style>
</defs><path d="m23.707 22.293-3.798-3.798c1.24-.68 2.091-1.981 2.091-3.495v-6c0-2.209-1.791-4-4-4h-6v5.586l-1.509-1.509c-.01-.25-.038-.504-.095-.763-.412-1.856-2.075-3.137-3.953-3.285l-4.736-4.736c-.391-.391-1.023-.391-1.414 0s-.391 1.023 0 1.414l22 22c.195.195.451.293.707.293s.512-.098.707-.293c.391-.391.391-1.023 0-1.414zm-4.707-7.293c0 .551-.449 1-1 1h-.586l-2.414-2.414v-5.586h3c.551 0 1 .449 1 1zm-15.5-4.5c-.828 0-1.5.671-1.5 1.5 0 .828.672 1.5 1.5 1.5h2.75c.689 0 1.25.561 1.25 1.25s-.561 1.25-1.25 1.25h-2.75c-.828 0-1.5.671-1.5 1.5s.672 1.5 1.5 1.5h2.589c1.931 0 3.692-1.232 4.227-3.063l-5.437-5.437z"/></svg>