<svg enable-background="new 0 0 24 24" viewBox="0 0 24 24" xmlns="http://www.w3.org/2000/svg"><defs>
<style> path { fill: #24836b; }</style>
</defs><path d="m7.997 4c0 .404.244.769.617.924.374.153.803.069 1.09-.217l3-3c.286-.286.372-.716.217-1.09-.155-.373-.52-.617-.924-.617-6.617 0-12 5.383-12 12 0 .552.448 1 1 1s1-.448 1-1c0-4.093 2.471-7.619 6-9.165zm4 12h3.003c1.652 0 2.997-1.344 2.997-2.997v-2.007c0-1.652-1.345-2.996-2.997-2.996h-3.003zm2-6h1.003c.549 0 .997.447.997.997v2.007c0 .549-.448.996-.997.996h-1.003zm9 1c-.552 0-1 .448-1 1 0 4.093-2.471 7.619-6 9.165v-1.165c0-.404-.244-.769-.617-.924-.375-.156-.804-.069-1.09.217l-3 3c-.286.286-.372.716-.217 1.09.155.373.519.617.924.617 6.617 0 12-5.383 12-12 0-.552-.448-1-1-1zm-14.5-3h-1.5c-.552 0-1 .448-1 1s.448 1 1 1h1.5c.276 0 .5.224.5.5s-.225.5-.5.5h-1.5c-.552 0-1 .448-1 1s.448 1 1 1h1.5c.276 0 .5.224.5.5s-.225.5-.5.5h-1.5c-.552 0-1 .448-1 1s.448 1 1 1h1.5c1.378 0 2.5-1.122 2.5-2.5 0-.565-.196-1.081-.513-1.5.317-.419.513-.935.513-1.5 0-1.378-1.122-2.5-2.5-2.5z"/></svg>