<svg enable-background="new 0 0 24 24" viewBox="0 0 24 24" xmlns="http://www.w3.org/2000/svg"><defs>
<style> path { fill: #24836b; }</style>
</defs><path d="m13.414 13.414c.781-.781.781-2.047 0-2.829-.39-.39-.902-.585-1.414-.585s-1.024.195-1.414.586c-.781.781-.781 2.048 0 2.829.39.39.902.585 1.414.585s1.024-.195 1.414-.586zm-1.416 5.588c1.871 0 3.63-.728 4.952-2.052 1.323-1.323 2.052-3.081 2.052-4.952s-.729-3.63-2.052-4.953c-1.769-1.77-4.373-2.459-6.793-1.802-.799.218-1.272 1.043-1.054 1.842.216.8 1.042 1.274 1.842 1.055 1.385-.375 2.872.018 3.883 1.027.756.758 1.172 1.763 1.172 2.832s-.416 2.074-1.173 2.83c-1.513 1.512-4.147 1.512-5.66 0-1.01-1.009-1.404-2.497-1.028-3.883.218-.8-.255-1.625-1.054-1.842-.802-.217-1.625.256-1.842 1.055-.658 2.422.032 5.025 1.802 6.793 1.323 1.322 3.082 2.05 4.953 2.05zm8.491-15.494c-3.033-3.033-7.498-4.217-11.647-3.087-.8.217-1.272 1.042-1.054 1.842s1.04 1.273 1.842 1.054c3.117-.845 6.463.041 8.737 2.313 3.511 3.511 3.511 9.224 0 12.736-3.512 3.511-9.225 3.511-12.737 0-2.274-2.273-3.159-5.621-2.313-8.737.218-.8-.255-1.625-1.054-1.842-.803-.218-1.625.256-1.843 1.055-1.129 4.152.055 8.615 3.087 11.647 2.341 2.34 5.416 3.511 8.491 3.511s6.15-1.171 8.491-3.511c4.681-4.682 4.681-12.299 0-16.981z"/></svg>