<svg enable-background="new 0 0 24 24" viewBox="0 0 24 24" xmlns="http://www.w3.org/2000/svg"><defs>
<style> path { fill: #24836b; }</style>
</defs><path d="m20.485 3.515c-4.686-4.686-12.284-4.686-16.971 0-4.686 4.687-4.686 12.284 0 16.971s12.284 4.686 16.971 0c4.687-4.687 4.687-12.285 0-16.971zm-3.485 9.485h-4v4c0 .553-.447 1-1 1-.276 0-.526-.112-.707-.293s-.293-.431-.293-.707v-4h-4c-.276 0-.526-.112-.707-.293s-.293-.431-.293-.707c0-.552.448-1 1-1h4v-4c0-.552.447-1 1-1s1 .448 1 1v4h4c.552 0 1 .448 1 1 0 .553-.448 1-1 1z"/></svg>